<?xml version="1.0" encoding="utf-8"?>
<!-- Generator: Adobe Illustrator 16.0.0, SVG Export Plug-In . SVG Version: 6.00 Build 0)  -->
<!DOCTYPE svg PUBLIC "-//W3C//DTD SVG 1.1//EN" "http://www.w3.org/Graphics/SVG/1.1/DTD/svg11.dtd">
<svg version="1.1" id="Layer_1" xmlns="http://www.w3.org/2000/svg" xmlns:xlink="http://www.w3.org/1999/xlink" x="0px" y="0px"
	 width="133.23px" height="56.69px" viewBox="0 0 133.23 56.69" enable-background="new 0 0 133.23 56.69" xml:space="preserve">
<g>
	<g>
		<path fill="#08375E" d="M15.052,54.094v-24.74c0-0.473-0.384-0.856-0.858-0.856s-0.858,0.383-0.858,0.856v24.74H15.052z"/>
		<path fill="#63C3EA" d="M18.212,53.713h-7.319c-0.324,0-0.588,0.264-0.588,0.588v1.6c0,0.322,0.265,0.588,0.588,0.588h7.319
			V53.713z"/>
		<g opacity="0.1">
			<path fill="#231F20" d="M12.881,55.9v-1.598c0-0.326,0.266-0.59,0.59-0.59h-2.578c-0.324,0-0.588,0.264-0.588,0.59V55.9
				c0,0.322,0.265,0.588,0.588,0.588h2.578C13.146,56.488,12.881,56.223,12.881,55.9z"/>
		</g>
		<path fill="#FF9F3D" d="M18.981,30.346c0,0.324-0.265,0.59-0.589,0.59H9.995c-0.323,0-0.588-0.266-0.588-0.59V19.652
			c0-0.323,0.266-0.588,0.588-0.588h8.396c0.325,0,0.589,0.266,0.589,0.588V30.346L18.981,30.346z"/>
		<path opacity="0.1" fill="#231F20" enable-background="new    " d="M11.939,30.346V19.652c0-0.323,0.265-0.588,0.59-0.588H9.995
			c-0.323,0-0.588,0.266-0.588,0.588v10.694c0,0.324,0.266,0.59,0.588,0.59h2.534C12.205,30.936,11.939,30.67,11.939,30.346z"/>
		<path fill="#FFBB4A" d="M48.254,34.736H19.931c-0.648,0-1.178,0.531-1.178,1.18v11.918h30.68v-11.92
			C49.433,35.266,48.904,34.736,48.254,34.736z"/>
		<path opacity="0.1" fill="#231F20" enable-background="new    " d="M21.988,34.736h-2.057c-0.648,0-1.178,0.531-1.178,1.18v11.918
			h2.055v-11.92C20.808,35.266,21.34,34.736,21.988,34.736z"/>
		<rect x="33.235" y="34.738" fill="#FF9F3D" width="1.716" height="13.096"/>
		<g>
			<path fill="#3EAF91" d="M29.898,47.246c0,0.322-0.266,0.588-0.588,0.588h-5.295c-0.324,0-0.589-0.266-0.589-0.588v-5.299
				c0-0.322,0.265-0.588,0.589-0.588h5.295c0.323,0,0.588,0.266,0.588,0.588V47.246z"/>
			<path fill="#3EAF91" d="M45.238,47.246c0,0.322-0.265,0.588-0.589,0.588h-5.293c-0.325,0-0.59-0.266-0.59-0.588v-5.299
				c0-0.322,0.265-0.588,0.59-0.588h5.293c0.324,0,0.589,0.266,0.589,0.588V47.246z"/>
		</g>
		<rect x="18.753" y="47.398" fill="#FF9F3D" width="30.68" height="6.064"/>
		<path fill="#FCC96C" d="M18.632,42.971h-2.876c-0.66,0-1.198,0.539-1.198,1.199v11.711c0,0.33,0.271,0.602,0.6,0.602h4.072
			c0.332,0,0.6-0.271,0.6-0.602V44.17C19.831,43.51,19.292,42.971,18.632,42.971z"/>
		<path opacity="0.1" fill="#231F20" enable-background="new    " d="M17.086,55.881V44.17c0-0.66,0.54-1.199,1.199-1.199h-2.528
			c-0.66,0-1.198,0.539-1.198,1.199v11.711c0,0.33,0.271,0.602,0.6,0.602h2.526C17.356,56.482,17.086,56.211,17.086,55.881z"/>
		<path fill="#FCC96C" d="M52.43,42.971h-2.877c-0.659,0-1.198,0.539-1.198,1.199v11.711c0,0.33,0.269,0.602,0.599,0.602h4.074
			c0.33,0,0.6-0.271,0.6-0.602V44.17C53.628,43.51,53.089,42.971,52.43,42.971z"/>
		<path opacity="0.1" fill="#231F20" enable-background="new    " d="M50.283,55.881V44.17c0-0.66,0.54-1.199,1.199-1.199h-1.929
			c-0.659,0-1.198,0.539-1.198,1.199v11.711c0,0.33,0.269,0.602,0.599,0.602h1.928C50.553,56.482,50.283,56.211,50.283,55.881z"/>
		<path fill="#AB5436" d="M84.514,0.203H54.862c-0.384,0-0.7,0.316-0.7,0.7v16.375c0,0.386,0.316,0.701,0.7,0.701h29.652
			c0.385,0,0.699-0.315,0.699-0.701V0.902C85.213,0.519,84.898,0.203,84.514,0.203z"/>
		<path fill="#B1E8FF" d="M57.344,15.178c-0.211,0-0.384-0.173-0.384-0.385V3.387c0-0.212,0.173-0.385,0.384-0.385h24.685
			c0.211,0,0.385,0.173,0.385,0.385v11.407c0,0.212-0.174,0.385-0.385,0.385H57.344z"/>
		<path fill="#86D5B5" d="M77.424,8.829l-4.152,6.349h8.758l-4.15-6.349C77.754,8.638,77.549,8.638,77.424,8.829z"/>
		<path fill="#3EAF91" d="M69.408,5.716l-6.186,9.462h12.831l-6.188-9.462C69.738,5.523,69.533,5.523,69.408,5.716z"/>
		<path fill="#86D5B5" d="M61.587,8.688l-4.243,6.491h8.944l-4.244-6.491C61.919,8.496,61.713,8.496,61.587,8.688z"/>
		<path opacity="0.1" fill="#231F20" enable-background="new    " d="M57.344,3.001c-0.211,0-0.384,0.173-0.384,0.385v11.407
			c0,0.212,0.173,0.385,0.384,0.385h1.843V3.001H57.344z"/>
		<path fill="#9CE8FF" d="M10.713,45.621v-1.914c0-0.332-0.272-0.605-0.607-0.605H2.433c-0.333,0-0.608,0.273-0.608,0.605v1.914
			H10.713z"/>
		<g>
			<path fill="#FFAF68" d="M0.529,52.98v2.893c0,0.334,0.274,0.609,0.607,0.609h1.093c0.333,0,0.607-0.275,0.607-0.609V52.98H0.529z
				"/>
			<path fill="#FFAF68" d="M9.703,55.873c0,0.334,0.273,0.609,0.607,0.609h1.093c0.333,0,0.607-0.275,0.607-0.609V52.98H9.704
				L9.703,55.873L9.703,55.873z"/>
		</g>
		<rect x="0.529" y="50.393" fill="#CB7C52" width="11.48" height="2.963"/>
		<path fill="#AB5436" d="M11.392,45.25H1.146c-0.339,0-0.618,0.275-0.618,0.617v4.914H12.01v-4.914
			C12.01,45.525,11.731,45.25,11.392,45.25z"/>
		<path fill="#CB7C52" d="M7.441,49.309H5.096c-0.487,0-0.882-0.396-0.882-0.885s0.395-0.885,0.882-0.885h2.345
			c0.488,0,0.884,0.396,0.884,0.885S7.93,49.309,7.441,49.309z"/>
		<path fill="#63C3EA" d="M10.713,42.502c0,0.332-0.272,0.607-0.607,0.607H2.433c-0.333,0-0.608-0.275-0.608-0.607v-1.383
			c0-0.332,0.274-0.605,0.608-0.605h7.673c0.334,0,0.607,0.273,0.607,0.605V42.502z"/>
	</g>
	<g>
		<polygon fill="#C5411E" points="107.551,31.145 107.551,33.311 109.721,33.311 109.721,49.355 113.621,49.355 113.621,51.09 
			126.199,51.09 126.199,49.355 130.535,49.355 130.535,33.311 132.701,33.311 132.701,31.145 		"/>
		<rect x="107.551" y="49.355" fill="#B02721" width="6.07" height="1.734"/>
		<rect x="126.199" y="49.355" fill="#B02721" width="6.07" height="1.734"/>
		<polygon fill="#47363D" points="127.932,49.355 127.932,37.646 112.322,37.646 112.322,49.355 113.621,49.355 113.621,51.09 
			126.199,51.09 126.199,49.355 		"/>
		<rect x="109.721" y="45.887" fill="#B02721" width="2.602" height="1.734"/>
		<rect x="109.721" y="42.418" fill="#B02721" width="2.602" height="1.734"/>
		<rect x="109.721" y="38.947" fill="#B02721" width="2.602" height="1.734"/>
		<rect x="127.932" y="45.887" fill="#B02721" width="2.604" height="1.734"/>
		<rect x="127.932" y="42.418" fill="#B02721" width="2.604" height="1.734"/>
		<rect x="127.932" y="38.947" fill="#B02721" width="2.604" height="1.734"/>
		<polygon fill="#ED8A19" points="116.66,32.879 118.393,34.611 116.66,36.348 114.922,34.611 		"/>
		
			<rect x="118.901" y="33.386" transform="matrix(-0.7075 -0.7067 0.7067 -0.7075 180.6559 143.9971)" fill="#ED8A19" width="2.451" height="2.454"/>
		
			<rect x="122.369" y="33.385" transform="matrix(-0.7071 -0.7071 0.7071 -0.7071 186.5165 146.4823)" fill="#ED8A19" width="2.453" height="2.454"/>
		<line fill="none" stroke="#B02721" stroke-width="2" stroke-miterlimit="10" x1="109.721" y1="33.744" x2="112.322" y2="33.744"/>
		<line fill="none" stroke="#B02721" stroke-width="2" stroke-miterlimit="10" x1="127.932" y1="33.744" x2="130.535" y2="33.744"/>
		<path fill="#ED8A19" d="M123.383,44.1l-1.025-1.166c-0.141,1.289-0.508,2.283-0.508,2.283c0-1.701-0.611-3.213-1.396-4.455
			l-0.125-0.145l-1.002,1.141c-1.287,1.465-1.836,3.461-1.41,5.365c0.002,0.018,0.006,0.035,0.01,0.051c0,0-0.773-1.096-1.127-2.449
			c-0.961,1.533-0.83,3.551,0.396,4.947c1.648,1.879,4.561,1.891,6.225,0.043C124.844,48.129,124.787,45.701,123.383,44.1z"/>
		<path fill="#61B872" d="M123.959,31.145h-1.42c-0.107,0-0.166-0.117-0.109-0.205l2.428-3.643c0.025-0.036,0.064-0.057,0.109-0.057
			h1.422c0.104,0,0.166,0.115,0.107,0.201l-2.43,3.643C124.045,31.121,124.004,31.145,123.959,31.145z"/>
		<rect x="126.631" y="25.939" fill="#3083C9" width="1.734" height="5.206"/>
		<rect x="128.365" y="26.808" fill="#EBBA16" width="1.736" height="4.337"/>
		<path fill="#C7CAC7" d="M114.057,29.41h-6.07c0.479,0,1.734,0.385,1.734,0.867c0,0.193,0,0.867,0,0.867h2.602c0,0,0-0.674,0-0.867
			C112.322,29.795,113.578,29.41,114.057,29.41z"/>
		<path fill="#C7CAC7" d="M121.428,29.41h-6.07c0.477,0,1.732,0.385,1.732,0.867c0,0.193,0,0.867,0,0.867h2.604c0,0,0-0.674,0-0.867
			C119.693,29.795,120.949,29.41,121.428,29.41z"/>
		
			<line fill="none" stroke="#949493" stroke-width="2" stroke-linecap="round" stroke-miterlimit="10" x1="107.986" y1="29.41" x2="114.057" y2="29.41"/>
		
			<line fill="none" stroke="#949493" stroke-width="2" stroke-linecap="round" stroke-miterlimit="10" x1="115.357" y1="29.41" x2="121.428" y2="29.41"/>
		<path fill="#EFCE4A" d="M121.779,47.754l-0.488-0.557c-0.066,0.613-0.244,1.088-0.244,1.088c0-0.811-0.293-1.533-0.666-2.127
			l-0.061-0.068l-0.479,0.543c-0.613,0.703-0.875,1.654-0.674,2.564c0.002,0.008,0.004,0.018,0.006,0.025
			c0,0-0.369-0.525-0.539-1.17c-0.457,0.73-0.396,1.693,0.191,2.361c0.785,0.896,2.174,0.902,2.971,0.018
			C122.477,49.676,122.451,48.518,121.779,47.754z"/>
	</g>
</g>
</svg>
