<?xml version="1.0" encoding="utf-8"?>
<!-- Generator: Adobe Illustrator 16.0.0, SVG Export Plug-In . SVG Version: 6.00 Build 0)  -->
<!DOCTYPE svg PUBLIC "-//W3C//DTD SVG 1.1//EN" "http://www.w3.org/Graphics/SVG/1.1/DTD/svg11.dtd">
<svg version="1.1" id="Layer_1" xmlns="http://www.w3.org/2000/svg" xmlns:xlink="http://www.w3.org/1999/xlink" x="0px" y="0px"
	 width="138.9px" height="127.561px" viewBox="0 0 138.9 127.561" enable-background="new 0 0 138.9 127.561" xml:space="preserve">
<g>
	<g>
		<g>
			<path fill="#F4EDE5" d="M31.32,117.505h76.26c15.508-11.612,25.543-30.131,25.543-50.995c0-35.166-28.508-63.674-63.674-63.674
				c-35.164,0-63.671,28.508-63.671,63.674C5.778,87.374,15.813,105.893,31.32,117.505z"/>
			<path fill="#FFFFFF" d="M31.823,117.505h75.253c15.791-11.409,26.046-29.813,26.046-50.576c0-0.82-0.021-1.635-0.053-2.447H5.83
				c-0.032,0.813-0.054,1.627-0.054,2.447C5.777,87.693,16.031,106.096,31.823,117.505z"/>
		</g>
		<path fill="#F4EDE5" d="M37.62,106.158c1.31,0.043,2.596,0.114,3.863,0.204c1.615,0.245,3.361,0.407,5.186,0.47
			c7.365,0.245,13.564-1.239,15.034-3.438c6.576-3.809,19.665-6.125,34.666-5.624c21.408,0.715,38.576,6.894,38.345,13.804
			c-0.229,6.905-17.773,11.926-39.181,11.211c-3.079-0.104-6.066-0.323-8.931-0.64l-9.384-0.976
			c-6.1-0.204-11.072,0.522-12.636,2.286c-0.099-0.005-0.398,0.432-0.497,0.426c-6.081,2.536-16.009,3.993-27.178,3.621
			c-18.269-0.611-32.918-5.883-32.722-11.778C4.383,109.829,19.353,105.546,37.62,106.158z"/>
	</g>
</g>
</svg>
