<?xml version="1.0" encoding="utf-8"?>
<!-- Generator: Adobe Illustrator 16.0.0, SVG Export Plug-In . SVG Version: 6.00 Build 0)  -->
<!DOCTYPE svg PUBLIC "-//W3C//DTD SVG 1.1//EN" "http://www.w3.org/Graphics/SVG/1.1/DTD/svg11.dtd">
<svg version="1.1" id="Layer_1" xmlns="http://www.w3.org/2000/svg" xmlns:xlink="http://www.w3.org/1999/xlink" x="0px" y="0px"
	 width="138.9px" height="127.561px" viewBox="0 0 138.9 127.561" enable-background="new 0 0 138.9 127.561" xml:space="preserve">
<g>
	<g>
		<path fill="#B3EFFF" d="M69.45,5.611c-34.384,0-62.256,27.874-62.256,62.256c0,22.241,11.665,41.755,29.205,52.766h66.105
			c17.54-11.011,29.205-30.524,29.205-52.766C131.711,33.485,103.838,5.611,69.45,5.611z"/>
		<path fill="#87D6D6" d="M131.711,68.204c0-6.634-1.042-13.024-2.963-19.021c-6.361,4.477-16.316,15.816-23.255,14.589
			c-8.126-1.437-22.728-9.659-29.063-12.532c-6.336-2.872-22.452,14.099-28.1,13.578c-5.648-0.522-19.147-10.182-25.896-9.267
			c-5.427,0.735-12.56,6.909-15.148,9.302c-0.059,1.109-0.091,2.229-0.091,3.354c0,6.68,1.056,13.111,3.003,19.143h118.512
			C130.655,81.316,131.711,74.884,131.711,68.204z"/>
		<path fill="#38C6B1" d="M10.267,87.343h118.292c1.964-5.964,3.048-12.327,3.104-18.935c-9.488-0.382-19.201-4.214-34.842,3.726
			c-6.377,3.239-13.281,6.733-19.447,9.896c-3.888-0.801-7.568-2.185-10.44-4.712C58.907,67.48,50.141,63.9,33.145,74.844
			c-3.642,0.894-4.698,0.562-10.313-3.256c-4.737-3.224-11.116-2.302-15.593-0.436C7.533,76.777,8.575,82.208,10.267,87.343z"/>
	</g>
	<path fill="#4CB5AB" d="M38.33,106.637c1.28,0.042,2.537,0.109,3.775,0.198c1.58,0.239,3.287,0.397,5.073,0.461
		c7.201,0.24,13.261-1.213,14.696-3.363c6.431-3.724,19.23-5.989,33.9-5.498c20.93,0.699,37.716,6.741,37.492,13.498
		c-0.226,6.751-17.378,11.66-38.312,10.962c-3.01-0.104-5.932-0.315-8.733-0.627l-9.176-0.955
		c-5.966-0.198-10.828,0.509-12.356,2.236c-0.098-0.005-0.39,0.423-0.485,0.417c-5.945,2.479-15.655,3.903-26.576,3.538
		c-17.863-0.596-32.187-5.75-31.995-11.516C5.83,110.227,20.467,106.039,38.33,106.637z"/>
</g>
</svg>
