<?xml version="1.0" encoding="utf-8"?>
<!-- Generator: Adobe Illustrator 16.0.0, SVG Export Plug-In . SVG Version: 6.00 Build 0)  -->
<!DOCTYPE svg PUBLIC "-//W3C//DTD SVG 1.1//EN" "http://www.w3.org/Graphics/SVG/1.1/DTD/svg11.dtd">
<svg version="1.1" id="Layer_1" xmlns="http://www.w3.org/2000/svg" xmlns:xlink="http://www.w3.org/1999/xlink" x="0px" y="0px"
	 width="119.06px" height="36.85px" viewBox="0 0 119.06 36.85" enable-background="new 0 0 119.06 36.85" xml:space="preserve">
<g>
	<g>
		<circle fill="#F9DB5A" cx="35.517" cy="17.123" r="10.748"/>
	</g>
	<path fill="#FFFFFF" d="M114.832,9.224c2.32,0,4.221,2.08,4.221,4.62l0,0c0,2.541-1.898,4.619-4.221,4.619H96.758h-0.604
		c-3.328,0-6.027-2.954-6.027-6.599c0-3.646,2.699-6.599,6.027-6.599c0,0,2.785-5.281,9.641-5.281c4.293,0,8.438,2.395,8.438,9.239
		H114.832L114.832,9.224z"/>
	<path fill="#FFFFFF" d="M25.265,22.957c2.372,0,4.312,2.125,4.312,4.725l0,0c0,2.596-1.938,4.725-4.312,4.725H6.783H6.166
		c-3.4,0-6.158-3.021-6.158-6.748s2.757-6.748,6.158-6.748c0,0,2.852-5.396,9.857-5.396c4.39,0,8.625,2.444,8.625,9.445h0.617
		V22.957z"/>
	<path fill="#FFFFFF" d="M43.26,27.625c2.318,0,4.217,2.078,4.217,4.619l0,0c0,2.541-1.897,4.621-4.217,4.621H25.182h-0.604
		c-3.328,0-6.024-2.955-6.024-6.602c0-3.645,2.696-6.598,6.024-6.598c0,0,2.785-5.28,9.643-5.28c4.293,0,8.437,2.393,8.437,9.239
		H43.26L43.26,27.625z"/>
</g>
</svg>
